<?xml version="1.0" encoding="utf-8"?>
<!-- Generator: Adobe Illustrator 22.0.1, SVG Export Plug-In . SVG Version: 6.00 Build 0)  -->
<svg version="1.1" id="Layer_1" xmlns="http://www.w3.org/2000/svg" xmlns:xlink="http://www.w3.org/1999/xlink" x="0px" y="0px"
	 viewBox="0 0 300 300" style="enable-background:new 0 0 300 300;" xml:space="preserve">
<style type="text/css">
	.st0{fill:url(#SVGID_1_);}
	.st1{fill:#FFFFFF;}
</style>
<linearGradient id="SVGID_1_" gradientUnits="userSpaceOnUse" x1="43.934" y1="43.934" x2="262.4376" y2="262.4376">
	<stop  offset="0" style="stop-color:#43C0EE"/>
	<stop  offset="0.1312" style="stop-color:#40B3E2"/>
	<stop  offset="0.4731" style="stop-color:#3A98C7"/>
	<stop  offset="0.7741" style="stop-color:#3687B7"/>
	<stop  offset="1" style="stop-color:#3581B1"/>
</linearGradient>
<circle class="st0" cx="150" cy="150" r="150"/>
<path class="st1" d="M215.4,76.8H84.6c-9.3,0-16.9,7.6-16.9,16.9V186c0,9.3,7.6,16.9,16.9,16.9h15.7V224c0,3.8,2.4,7.3,5.9,8.6
	c1.1,0.4,2.2,0.6,3.3,0.6c2.6,0,5.1-1.1,6.9-3.1l24.3-27.2h74.7c9.3,0,16.9-7.6,16.9-16.9V93.7C232.3,84.3,224.7,76.8,215.4,76.8z
	 M101.9,169.2c-2.5,0-4.6-2.1-4.6-4.6c0-2.5,2.1-4.6,4.6-4.6h62c2.5,0,4.6,2.1,4.6,4.6c0,2.5-2.1,4.6-4.6,4.6H101.9z M202.4,145.2
	H101.9c-2.5,0-4.6-2.1-4.6-4.6c0-2.5,2.1-4.6,4.6-4.6h100.5c2.5,0,4.6,2.1,4.6,4.6C207,143.1,205,145.2,202.4,145.2z M97.3,116.5
	c0-2.5,2.1-4.6,4.6-4.6h73.6c2.5,0,4.6,2.1,4.6,4.6s-2.1,4.6-4.6,4.6h-73.6C99.4,121.1,97.3,119.1,97.3,116.5z"/>
</svg>
